<?xml version="1.0"?>
<svg id="search-icon" xmlns="http://www.w3.org/2000/svg" xmlns:xlink="http://www.w3.org/1999/xlink" xmlns:svgjs="http://svgjs.com/svgjs" version="1.1" x="0" y="0" viewBox="0 0 385.567 385.567" style="enable-background:new 0 0 512 512" xml:space="preserve" fill="currentColor"><g>
<circle xmlns="http://www.w3.org/2000/svg" style="" cx="169.796" cy="169.796" r="154.122" class=""/>
<path xmlns="http://www.w3.org/2000/svg" style="" d="M380.865,358.922l-80.457-80.98c24.555-29.257,39.184-67.396,39.184-108.147  C339.592,76.278,263.314,0,169.796,0S0,76.278,0,169.796s76.278,169.796,169.796,169.796c41.273,0,78.89-14.629,108.147-39.184  l80.98,80.457c3.135,3.135,7.314,4.702,10.971,4.702c3.657,0,7.837-1.567,10.971-4.702  C387.135,375.118,387.135,365.192,380.865,358.922z M31.347,169.796c0-76.278,62.171-138.449,138.449-138.449  s138.449,62.171,138.449,138.449s-62.171,138.449-138.449,138.449S31.347,246.073,31.347,169.796z" />
<g xmlns="http://www.w3.org/2000/svg">
</g>
<g xmlns="http://www.w3.org/2000/svg">
</g>
<g xmlns="http://www.w3.org/2000/svg">
</g>
<g xmlns="http://www.w3.org/2000/svg">
</g>
<g xmlns="http://www.w3.org/2000/svg">
</g>
<g xmlns="http://www.w3.org/2000/svg">
</g>
<g xmlns="http://www.w3.org/2000/svg">
</g>
<g xmlns="http://www.w3.org/2000/svg">
</g>
<g xmlns="http://www.w3.org/2000/svg">
</g>
<g xmlns="http://www.w3.org/2000/svg">
</g>
<g xmlns="http://www.w3.org/2000/svg">
</g>
<g xmlns="http://www.w3.org/2000/svg">
</g>
<g xmlns="http://www.w3.org/2000/svg">
</g>
<g xmlns="http://www.w3.org/2000/svg">
</g>
<g xmlns="http://www.w3.org/2000/svg">
</g>
</g></svg>
